<?xml version="1.0" standalone="no"?>
<!DOCTYPE svg PUBLIC "-//W3C//DTD SVG 20010904//EN"
 "http://www.w3.org/TR/2001/REC-SVG-20010904/DTD/svg10.dtd">
<svg version="1.0" xmlns="http://www.w3.org/2000/svg"
 width="80.000000pt" height="80.000000pt" viewBox="0 0 80.000000 80.000000"
 preserveAspectRatio="xMidYMid meet">
<metadata>
Created by potrace 1.11, written by Peter Selinger 2001-2013
</metadata>
<g transform="translate(0.000000,80.000000) scale(0.100000,-0.100000)"
fill="#000000" stroke="none">
<path d="M372 614 c-10 -11 -11 -18 -3 -28 19 -23 -12 -37 -87 -40 -38 -2 -75
-7 -83 -12 -8 -5 -19 -9 -26 -10 -25 -4 -123 -53 -123 -62 0 -10 44 -32 65
-32 7 0 35 13 62 30 26 16 61 32 77 36 l29 7 -22 -22 c-11 -11 -21 -25 -21
-31 0 -5 -1 -13 -2 -17 -2 -3 7 -8 19 -9 17 -3 26 4 38 29 15 33 52 63 63 52
3 -3 1 -15 -6 -25 -7 -11 -12 -24 -12 -30 0 -16 30 -12 36 5 4 8 14 15 24 15
10 0 20 -7 24 -15 6 -17 36 -21 36 -5 0 6 -5 19 -12 30 -7 10 -9 22 -5 26 9
10 57 -35 68 -63 5 -14 16 -22 26 -20 31 4 31 29 2 58 l-22 22 29 -7 c16 -4
52 -21 79 -38 43 -26 55 -29 84 -22 44 11 50 30 14 46 -15 7 -30 15 -33 18
-13 16 -165 52 -205 48 -33 -2 -46 1 -54 14 -14 22 -14 31 -1 23 15 -9 12 15
-4 31 -18 18 -37 17 -54 -2z m46 -78 c2 -10 -1 -23 -7 -29 -16 -16 -34 6 -26
33 8 24 28 22 33 -4z"/>
<path d="M16 432 c-4 -3 5 -17 18 -31 13 -14 32 -44 43 -66 l18 -40 308 0 307
0 11 33 c6 19 24 49 40 67 16 18 26 36 22 38 -7 5 -99 -36 -112 -49 -2 -2 1
-9 6 -16 14 -17 -2 -58 -22 -58 -18 0 -19 12 -3 28 9 9 7 13 -5 18 -23 8 -36
-3 -30 -26 7 -25 -13 -26 -26 -2 -7 13 -7 22 1 30 13 13 3 42 -14 42 -28 0
-39 -16 -30 -41 11 -29 5 -49 -14 -49 -8 0 -14 10 -14 25 0 16 -6 25 -15 25
-9 0 -15 -9 -15 -25 0 -16 -6 -25 -15 -25 -22 0 -30 29 -16 52 7 11 11 21 9
22 -2 0 -18 11 -36 24 l-32 23 -33 -23 c-17 -13 -33 -24 -35 -24 -2 -1 2 -11
9 -22 14 -23 6 -52 -16 -52 -9 0 -15 9 -15 25 0 16 -6 25 -15 25 -9 0 -15 -9
-15 -25 0 -28 -12 -32 -30 -10 -9 11 -10 18 -1 29 13 16 6 42 -14 50 -7 2 -19
-2 -26 -10 -10 -13 -10 -20 0 -36 9 -15 9 -23 0 -34 -14 -17 -33 -8 -25 12 7
19 -22 30 -37 15 -9 -9 -9 -14 2 -20 10 -7 11 -10 1 -16 -20 -12 -40 22 -30
49 6 17 4 25 -10 34 -32 20 -88 40 -94 34z"/>
<path d="M90 272 c0 -4 139 -7 310 -7 171 0 310 3 310 7 0 5 -139 8 -310 8
-171 0 -310 -3 -310 -8z"/>
<path d="M90 222 l0 -28 90 -1 c84 -1 89 0 87 19 -1 12 4 23 12 26 10 3 12 -2
8 -20 l-7 -25 215 0 215 1 0 28 0 28 -310 0 -310 0 0 -28z m85 8 c3 -6 -1 -13
-10 -16 -19 -8 -30 0 -20 15 8 14 22 14 30 1z m245 -11 c0 -11 -27 -12 -34 0
-3 4 -3 11 0 14 8 8 34 -3 34 -14z m118 3 c2 -7 -3 -12 -12 -12 -9 0 -16 7
-16 16 0 17 22 14 28 -4z m120 0 c2 -7 -5 -12 -17 -12 -14 0 -19 5 -14 15 6
17 25 15 31 -3z"/>
</g>
</svg>
